<?xml version="1.0" encoding="iso-8859-1"?>
<!-- Generator: Adobe Illustrator 25.2.1, SVG Export Plug-In . SVG Version: 6.00 Build 0)  -->
<svg version="1.1" id="Layer_1" xmlns="http://www.w3.org/2000/svg" xmlns:xlink="http://www.w3.org/1999/xlink" x="0px" y="0px"
	 viewBox="0 0 64 64" style="enable-background:new 0 0 64 64;" xml:space="preserve">
<path d="M22,51c-1-1-4-1-4-1l-0.425-1.274c-0.362-1.086-1.215-1.939-2.301-2.301L14,46c0,0,0.5-2.5-1-4l25-25l8,10L22,51z"/>
<path d="M52,21l-9-9l4.68-4.68c0,0,3.5-1.5,7,2s2,7,2,7L52,21z"/>
<path d="M9,50l-1.843,4.476c-0.614,1.49,0.877,2.981,2.367,2.367L14,55L9,50z"/>
</svg>